<svg xmlns="http://www.w3.org/2000/svg" width="1024" height="1024" viewBox="0 0 1024 1024">
  <defs>
    <radialGradient id="bgGrad" cx="50%" cy="50%" r="60%">
      <stop offset="0%" stop-color="#0d0d12" />
      <stop offset="100%" stop-color="#08080b" />
    </radialGradient>
  </defs>
  <rect width="1024" height="1024" rx="229.376" ry="229.376" fill="url(#bgGrad)" />
  <rect x="6" y="6" width="1012" height="1012" rx="223.376" ry="223.376" fill="none" stroke="#22d3ee" stroke-width="2" opacity="0.18" />
  <g stroke="#22d3ee" stroke-width="22.53" fill="none" opacity="0.18">
    <circle cx="512" cy="512" r="348.16" />
    <circle cx="512" cy="512" r="191.49" />
    <g transform="rotate(0 512 512)"><circle cx="630.77" cy="692.59" r="22.53" fill="#22d3ee" stroke="none" /><line x1="512" y1="512" x2="684.55" y2="548.67" /><circle cx="679.72" cy="578.70" r="22.53" fill="#22d3ee" stroke="none" /><line x1="512" y1="512" x2="762.26" y2="529.51" /><polygon points="646.56,656.97 612.86,715.34 680.26,715.34" /><line x1="512" y1="512" x2="730.24" y2="519.77" /></g><g transform="rotate(60 512 512)"><circle cx="630.77" cy="692.59" r="22.53" fill="#22d3ee" stroke="none" /><line x1="512" y1="512" x2="684.55" y2="548.67" /><circle cx="679.72" cy="578.70" r="22.53" fill="#22d3ee" stroke="none" /><line x1="512" y1="512" x2="762.26" y2="529.51" /><polygon points="646.56,656.97 612.86,715.34 680.26,715.34" /><line x1="512" y1="512" x2="730.24" y2="519.77" /></g><g transform="rotate(120 512 512)"><circle cx="630.77" cy="692.59" r="22.53" fill="#22d3ee" stroke="none" /><line x1="512" y1="512" x2="684.55" y2="548.67" /><circle cx="679.72" cy="578.70" r="22.53" fill="#22d3ee" stroke="none" /><line x1="512" y1="512" x2="762.26" y2="529.51" /><polygon points="646.56,656.97 612.86,715.34 680.26,715.34" /><line x1="512" y1="512" x2="730.24" y2="519.77" /></g><g transform="rotate(180 512 512)"><circle cx="630.77" cy="692.59" r="22.53" fill="#22d3ee" stroke="none" /><line x1="512" y1="512" x2="684.55" y2="548.67" /><circle cx="679.72" cy="578.70" r="22.53" fill="#22d3ee" stroke="none" /><line x1="512" y1="512" x2="762.26" y2="529.51" /><polygon points="646.56,656.97 612.86,715.34 680.26,715.34" /><line x1="512" y1="512" x2="730.24" y2="519.77" /></g><g transform="rotate(240 512 512)"><circle cx="630.77" cy="692.59" r="22.53" fill="#22d3ee" stroke="none" /><line x1="512" y1="512" x2="684.55" y2="548.67" /><circle cx="679.72" cy="578.70" r="22.53" fill="#22d3ee" stroke="none" /><line x1="512" y1="512" x2="762.26" y2="529.51" /><polygon points="646.56,656.97 612.86,715.34 680.26,715.34" /><line x1="512" y1="512" x2="730.24" y2="519.77" /></g><g transform="rotate(300 512 512)"><circle cx="630.77" cy="692.59" r="22.53" fill="#22d3ee" stroke="none" /><line x1="512" y1="512" x2="684.55" y2="548.67" /><circle cx="679.72" cy="578.70" r="22.53" fill="#22d3ee" stroke="none" /><line x1="512" y1="512" x2="762.26" y2="529.51" /><polygon points="646.56,656.97 612.86,715.34 680.26,715.34" /><line x1="512" y1="512" x2="730.24" y2="519.77" /></g>
  </g>
  <g stroke="#22d3ee" stroke-width="8.19" fill="none" opacity="0.95" stroke-linecap="round">
    <circle cx="512" cy="512" r="348.16" />
    <circle cx="512" cy="512" r="191.49" />
    <g transform="rotate(0 512 512)"><circle cx="630.77" cy="692.59" r="22.53" fill="#22d3ee" stroke="none" /><line x1="512" y1="512" x2="684.55" y2="548.67" /><circle cx="679.72" cy="578.70" r="22.53" fill="#22d3ee" stroke="none" /><line x1="512" y1="512" x2="762.26" y2="529.51" /><polygon points="646.56,656.97 612.86,715.34 680.26,715.34" /><line x1="512" y1="512" x2="730.24" y2="519.77" /></g><g transform="rotate(60 512 512)"><circle cx="630.77" cy="692.59" r="22.53" fill="#22d3ee" stroke="none" /><line x1="512" y1="512" x2="684.55" y2="548.67" /><circle cx="679.72" cy="578.70" r="22.53" fill="#22d3ee" stroke="none" /><line x1="512" y1="512" x2="762.26" y2="529.51" /><polygon points="646.56,656.97 612.86,715.34 680.26,715.34" /><line x1="512" y1="512" x2="730.24" y2="519.77" /></g><g transform="rotate(120 512 512)"><circle cx="630.77" cy="692.59" r="22.53" fill="#22d3ee" stroke="none" /><line x1="512" y1="512" x2="684.55" y2="548.67" /><circle cx="679.72" cy="578.70" r="22.53" fill="#22d3ee" stroke="none" /><line x1="512" y1="512" x2="762.26" y2="529.51" /><polygon points="646.56,656.97 612.86,715.34 680.26,715.34" /><line x1="512" y1="512" x2="730.24" y2="519.77" /></g><g transform="rotate(180 512 512)"><circle cx="630.77" cy="692.59" r="22.53" fill="#22d3ee" stroke="none" /><line x1="512" y1="512" x2="684.55" y2="548.67" /><circle cx="679.72" cy="578.70" r="22.53" fill="#22d3ee" stroke="none" /><line x1="512" y1="512" x2="762.26" y2="529.51" /><polygon points="646.56,656.97 612.86,715.34 680.26,715.34" /><line x1="512" y1="512" x2="730.24" y2="519.77" /></g><g transform="rotate(240 512 512)"><circle cx="630.77" cy="692.59" r="22.53" fill="#22d3ee" stroke="none" /><line x1="512" y1="512" x2="684.55" y2="548.67" /><circle cx="679.72" cy="578.70" r="22.53" fill="#22d3ee" stroke="none" /><line x1="512" y1="512" x2="762.26" y2="529.51" /><polygon points="646.56,656.97 612.86,715.34 680.26,715.34" /><line x1="512" y1="512" x2="730.24" y2="519.77" /></g><g transform="rotate(300 512 512)"><circle cx="630.77" cy="692.59" r="22.53" fill="#22d3ee" stroke="none" /><line x1="512" y1="512" x2="684.55" y2="548.67" /><circle cx="679.72" cy="578.70" r="22.53" fill="#22d3ee" stroke="none" /><line x1="512" y1="512" x2="762.26" y2="529.51" /><polygon points="646.56,656.97 612.86,715.34 680.26,715.34" /><line x1="512" y1="512" x2="730.24" y2="519.77" /></g>
    <circle cx="512" cy="512" r="28.67" fill="#22d3ee" stroke="none" />
  </g>
</svg>